<svg width="512" height="151.35" xmlns="http://www.w3.org/2000/svg"><path d="m419.117 81.468-14.874 3.919 4.808-12.456 14.352-3.78.192.718zm-19.38 4.16-14.874 3.92 4.808-12.455 14.352-3.782.192.719zm-4.953-24.824 14.352-3.781.192.718-4.478 11.6-14.874 3.918zm109.764-39.33 7.428-19.24-.32-1.192-73.488 19.364C446 9.069 443.308-.022 443.308-.022s-23.469 14.988-41.218 14.594-23.468-5.127-50.684 3.55-34.907 35.302-42.795 41.02c-7.888 5.72-32.639 24.356-32.639 24.356l.055.333 22.313-7.105s-6.119 5.768-19.12 23.29c0 0-.226-.208-.605-.565l.02.12s10.452 15.974 20.707 13.016c1.027-.296 2.189-.791 3.462-1.436 4.129 2.299 9.52 4.561 15.47 5.183 0 0-4.03-4.68-7.388-10.01.908-.587 1.838-1.193 2.787-1.811l-.436.31 8.5 3.12-.94-7.986.085-.052 8.35 3.065-1.04-7.263a72.882 72.882 0 0 1 3.17-1.565l8.705-32.929 35.991-24.552-2.86 7.198c-7.296 17.946-21.003 22.186-21.003 22.186l-5.72 2.17c-4.254 5.028-6.043 6.265-7.506 23.143 3.43-.864 6.708-1.067 9.676-.268 15.383 4.142 20.708 22.68 16.567 27.808-1.036 1.282-3.504 3.478-6.622 6.05h-6.241l-.081 5.057c-.214.167-.427.334-.642.5h-6.35l-.079 4.936-1.663 1.257c-5.97.124-13.525-5.08-13.525-5.08 0 4.733 3.945 12.03 3.945 12.03s.258-.124.697-.34l-.599.439s15.975 10.65 26.033 6.705c8.945-3.508 32.095-21.765 52.081-30.402l60.479-15.935 7.976-20.661-46.088 12.143V77.04l54.063-14.245 7.977-20.66-62.04 16.345V39.92zm-276.54 24.972.357 27.84c.117 5.45.237 9.478.117 13.744h.238c1.183-4.74 2.37-8.648 4.383-14.809l8.768-26.774h14.927l-18.955 45.61c-5.687 13.27-12.203 24.406-19.312 30.922-3.434 3.197-7.463 5.686-9.95 6.753l-5.924-12.085c2.606-1.304 5.33-2.844 7.7-4.738 3.319-2.726 6.516-6.043 7.939-9.242.235-.83.472-1.421.355-2.605l-6.161-54.615zm-40.992 0 .472-2.37c1.304-6.87 3.911-12.794 8.768-17.297 3.554-3.317 8.767-5.33 14.69-5.33 3.792 0 6.634.592 8.412 1.184l-3.317 11.373c-1.42-.474-2.724-.71-4.62-.71-5.332 0-8.411 5.568-9.36 10.662l-.474 2.488h17.18l-2.014 10.426h-16.942l-9.123 47.506H175.88l9.123-47.506m-19.27-25.235c0-4.264 3.08-9.121 8.292-9.121 4.857 0 7.11 3.671 6.99 7.7-.118 5.923-4.146 9.24-8.53 9.24-4.74 0-6.872-3.434-6.752-7.82m-13.861 72.742 11.136-57.932h14.807l-11.135 57.932zm-3.556-73.57-2.962 15.638h22.749l-1.896 10.426H143.34l-5.094 26.893c-.355 2.013-.475 3.79-.475 4.857 0 3.554 1.778 4.857 4.503 4.857 1.066 0 2.607 0 4.028-.237l-1.778 11.136c-2.724.712-6.041.949-8.885.949-8.884 0-13.27-4.977-13.27-12.796 0-2.605.475-5.805 1.067-8.649l5.095-27.01h-6.753l2.015-10.426h6.753l2.368-11.965zM82.921 91.701c2.37 1.303 5.214 2.487 9.36 2.37 4.265-.118 6.633-2.844 6.633-6.516 0-3.2-1.539-5.45-5.567-8.648-4.975-4.029-7.345-9.123-7.345-14.099 0-10.663 8.292-19.31 21.442-19.31 5.095 0 8.766.947 10.899 2.13l-3.2 10.782c-1.658-.947-4.382-1.776-6.87-1.776-4.738 0-7.7 2.488-7.7 6.396 0 2.962 1.659 4.74 4.384 6.99 6.515 4.977 8.648 10.662 8.648 15.164 0 12.794-8.886 19.904-22.154 19.904-5.332 0-10.07-1.541-12.085-2.962zM64.91 56.873c-1.183-.237-2.25-.356-3.079-.356-9.714 0-14.926 19.311-15.046 27.84 0 5.095.711 8.766 4.385 8.766 4.026 0 7.817-6.633 9.95-17.177zm-5.33 47.506c.118-3.08.356-6.279.473-9.715H59.7c-4.62 7.702-10.19 10.664-14.81 10.664-8.41 0-12.557-7.228-12.557-17.417 0-17.534 8.767-42.411 33.645-42.411 5.806 0 11.61.947 15.164 2.368L74.745 80.09c-1.423 6.753-2.489 18.009-2.37 24.287zM11.127 46.447l.472-2.37c1.304-6.87 3.91-12.794 8.768-17.297 3.554-3.316 8.766-5.33 14.69-5.33 3.792 0 6.634.592 8.412 1.184L40.15 34.008c-1.423-.475-2.725-.71-4.62-.71-5.332 0-8.411 5.567-9.36 10.662l-.474 2.487h11.255l-2.015 10.426H23.921l-9.123 47.506H-.012l9.124-47.506"/></svg>